<svg xmlns="http://www.w3.org/2000/svg" xml:space="preserve" width="22" height="22" viewBox="0 0 32 32"><path d="M6.5 3.5h19v25h-19z" style="fill:#af9480"/><path d="M25.5 21.5h2v2h-2z" style="fill:#c3cc6a"/><path d="M25.5 5.5h2v2h-2z" style="fill:#cc4121"/><path d="M25.5 9.5h2v2h-2z" style="fill:#d1712a"/><path d="M25.5 13.5h2v2h-2z" style="fill:#e0a838"/><path d="M25.5 17.5h2v2h-2z" style="fill:#ead13f"/><path d="M19 13a3 3 0 1 1-6 0 3 3 0 0 1 6 0m-.781 3.812-.403-.269c-.548.283-1.159.457-1.816.457s-1.268-.174-1.816-.456l-.403.269A4 4 0 0 0 12 20.141V23h8v-2.859a4 4 0 0 0-1.781-3.329" style="fill:#716558"/><path d="M28 8V5h-2V3H6v1H4v1h2v1H4v1h2v4H4v1h2v1H4v1h2v4H4v1h2v1H4v1h2v4H4v1h2v1H4v1h2v1h20v-5h2v-3h-2v-1h2v-3h-2v-1h2v-3h-2v-1h2V9h-2V8zm-1-2v1h-1V6zm0 16v1h-1v-1zm0-4v1h-1v-1zm0-4v1h-1v-1zm0-4v1h-1v-1zm-2 18H7V4h18z" style="fill:#231f20"/></svg>